<svg xmlns="http://www.w3.org/2000/svg" xmlns:svg="http://www.w3.org/2000/svg" xmlns:xlink="http://www.w3.org/1999/xlink" id="svg31" width="380" height="380" overflow="hidden" version="1.1" xml:space="preserve"><defs id="defs23"><style id="style1" type="text/css">.fil70{fill:#000}</style><mask id="id1"><linearGradient id="id2" x1="168.322" x2="248.565" y1="328.198" y2="65.791" gradientUnits="userSpaceOnUse"><stop id="stop1" offset="0" style="stop-opacity:.2;stop-color:white"/><stop id="stop2" offset=".722" style="stop-opacity:.152941;stop-color:white"/><stop id="stop3" offset="1" style="stop-opacity:.101961;stop-color:white"/></linearGradient><rect id="rect3" width="265.397" height="269.955" x="67.414" y="66.254" style="fill:url(#id2)"/></mask><linearGradient id="grad1"><stop id="stop1-3" offset="0%" stop-color="#d66a27" stop-opacity="1"/><stop id="stop2-6" offset="100%" stop-color="#e88e3a" stop-opacity="1"/></linearGradient><style id="style1-5" type="text/css">.fil70{fill:#000}</style><style id="style1-7" type="text/css">.fil70{fill:#000}</style><style id="style1-0" type="text/css">.fil70{fill:#000}</style><style id="style1-3" type="text/css">.fil70{fill:#000}</style><linearGradient id="linearGradient6" x1="110.233" x2="186.565" y1="319.878" y2="52.499" gradientUnits="userSpaceOnUse" xlink:href="#grad1"/><linearGradient id="linearGradient11"><stop id="stop10" offset="0" style="stop-color:#000;stop-opacity:.15000001"/><stop id="stop11-9" offset="1" style="stop-color:#000;stop-opacity:.09507665"/></linearGradient><style id="style1-59" type="text/css">.fil70{fill:#000}</style><linearGradient id="linearGradient10" x1="163.782" x2="235.578" y1="334.299" y2="66.353" gradientUnits="userSpaceOnUse" xlink:href="#linearGradient11"/><filter id="filter42" width="1.114" height="1.112" x="-.044" y="-.044" style="color-interpolation-filters:sRGB"><feFlood id="feFlood41" flood-color="#000" flood-opacity=".251" in="SourceGraphic" result="flood"/><feGaussianBlur id="feGaussianBlur41" in="SourceGraphic" result="blur" stdDeviation="6"/><feOffset id="feOffset41" dx="8" dy="8" in="blur" result="offset"/><feComposite id="feComposite41" in="flood" in2="offset" operator="in" result="comp1"/><feComposite id="feComposite42" in="SourceGraphic" in2="comp1" operator="over" result="comp2"/></filter></defs><style id="style301" type="text/css"/><g id="g7" transform="matrix(0.99518318,0,0,0.99518318,-8.9697056,-9.1036055)" style="clip-rule:evenodd;display:inline;fill-rule:evenodd;filter:url(#filter42);image-rendering:optimizeQuality;shape-rendering:geometricPrecision;text-rendering:geometricPrecision"><g style="clip-rule:evenodd;fill-rule:evenodd;image-rendering:optimizeQuality;shape-rendering:geometricPrecision;text-rendering:geometricPrecision" id="g1"><path style="fill:url(#linearGradient6);fill-opacity:1" id="path1-7" d="M 42.5527,249.8688 88.8492,77.9644 C 93.14,62.0321 101.8517,29.6847 130.8195,37.4862 l 210.528,56.6984 c 28.9678,7.8014 20.2559,40.1498 15.9654,56.0812 l -46.2965,171.9044 c -4.2905,15.9313 -13.0025,48.2797 -41.9703,40.4782 L 58.5181,305.95 C 29.5503,298.1486 38.2619,265.8011 42.5527,249.8688 Z M 162.091,215.7317 175.076,167.517 c 1.0727,-3.9831 5.2092,-6.3643 9.1923,-5.2916 l 48.2147,12.985 c 3.9831,1.0727 6.3643,5.2092 5.2916,9.1923 l -12.9849,48.2147 c -1.0727,3.9831 -5.2093,6.3643 -9.1924,5.2916 l -48.2147,-12.985 c -3.983,-1.0727 -6.3643,-5.2092 -5.2916,-9.1923 z"/><path id="path4" d="m 121.5026,250.0662 c 6.4509,0 11.6804,5.2295 11.6804,11.6804 0,6.4509 -5.2295,11.6804 -11.6804,11.6804 -6.4509,0 -11.6804,-5.2295 -11.6804,-11.6804 0,-6.4509 5.2295,-11.6804 11.6804,-11.6804 z m 152.4452,55.6772 c 6.4509,0 11.6804,5.2295 11.6804,11.6804 0,6.4509 -5.2295,11.6804 -11.6804,11.6804 -6.4509,0 -11.6804,-5.2295 -11.6804,-11.6804 0,-6.4509 5.2295,-11.6804 11.6804,-11.6804 z M 96.2191,157.1178 c 6.4509,0 11.6804,5.2295 11.6804,11.6804 0,6.4509 -5.2295,11.6804 -11.6804,11.6804 -6.4509,0 -11.6804,-5.2295 -11.6804,-11.6804 0,-6.4509 5.2295,-11.6804 11.6804,-11.6804 z m 113.6355,-39.8094 c 6.4509,0 11.6804,5.2295 11.6804,11.6804 0,6.4509 -5.2295,11.6804 -11.6804,11.6804 -6.4509,0 -11.6804,-5.2295 -11.6804,-11.6804 0,-6.4509 5.2295,-11.6804 11.6804,-11.6804 z m 111.1758,-11.4659 c 6.4509,0 11.6804,5.2295 11.6804,11.6804 0,6.4509 -5.2295,11.6804 -11.6804,11.6804 -6.4509,0 -11.6804,-5.2295 -11.6804,-11.6804 0,-6.4509 5.2295,-11.6804 11.6804,-11.6804 z m -47.2705,107.564 c 6.4509,0 11.6804,5.2295 11.6804,11.6804 0,6.4509 -5.2295,11.6804 -11.6804,11.6804 -6.4509,0 -11.6804,-5.2295 -11.6804,-11.6804 0,-6.4509 5.2295,-11.6804 11.6804,-11.6804 z M 123.8828,66.3535 c 6.4509,0 11.6804,5.2295 11.6804,11.6804 0,6.4509 -5.2295,11.6804 -11.6804,11.6804 -6.4509,0 -11.6804,-5.2295 -11.6804,-11.6804 0,-6.4509 5.2295,-11.6804 11.6804,-11.6804 z m 108.1391,258.075 c 3.2254,0 5.8402,2.6147 5.8402,5.84 0,3.2253 -2.6148,5.84 -5.8402,5.84 -3.2254,0 -5.8402,-2.6147 -5.8402,-5.84 0,-3.2253 2.6148,-5.84 5.8402,-5.84 z M 311.5,184.9212 c 3.2254,0 5.8402,2.6148 5.8402,5.8402 0,3.2254 -2.6148,5.8402 -5.8402,5.8402 -3.2254,0 -5.8402,-2.6148 -5.8402,-5.8402 0,-3.2254 2.6148,-5.8402 5.8402,-5.8402 z m -168.73,-45.927 c 3.2254,0 5.8402,2.6148 5.8402,5.8402 0,3.2254 -2.6148,5.8402 -5.8402,5.8402 -3.2254,0 -5.8402,-2.6148 -5.8402,-5.8402 0,-3.2254 2.6148,-5.8402 5.8402,-5.8402 z m 14.3065,157.7366 c 3.2254,0 5.8402,2.6148 5.8402,5.8402 0,3.2254 -2.6148,5.8402 -5.8402,5.8402 -3.2254,0 -5.8402,-2.6148 -5.8402,-5.8402 0,-3.2254 2.6148,-5.8402 5.8402,-5.8402 z m -23.7007,-89.0183 c 3.2254,0 5.8402,2.6148 5.8402,5.8402 0,3.2254 -2.6148,5.8402 -5.8402,5.8402 -3.2254,0 -5.8402,-2.6148 -5.8402,-5.8402 0,-3.2254 2.6148,-5.8402 5.8402,-5.8402 z M 244.8631,106.2892 c 3.2254,0 5.8402,2.6148 5.8402,5.8402 0,3.2254 -2.6148,5.8402 -5.8402,5.8402 -3.2254,0 -5.8402,-2.6148 -5.8402,-5.8402 0,-3.2254 2.6148,-5.8402 5.8402,-5.8402 z M 174.9658,70.1836 c 3.2254,0 5.8402,2.6148 5.8402,5.8402 0,3.2254 -2.6148,5.8402 -5.8402,5.8402 -3.2254,0 -5.8402,-2.6148 -5.8402,-5.8402 0,-3.2254 2.6148,-5.8402 5.8402,-5.8402 z M 73.3538,271.0374 c 3.2254,0 5.8402,2.6148 5.8402,5.8402 0,3.2254 -2.6148,5.8402 -5.8402,5.8402 -3.2254,0 -5.8402,-2.6148 -5.8402,-5.8402 0,-3.2254 2.6148,-5.8402 5.8402,-5.8402 z M 275.646,143.8299 c 3.2254,0 5.8402,2.6148 5.8402,5.8402 0,3.2254 -2.6148,5.8402 -5.8402,5.8402 -3.2254,0 -5.8402,-2.6148 -5.8402,-5.8402 0,-3.2254 2.6148,-5.8402 5.8402,-5.8402 z m 16.7982,125.4214 c 3.2254,0 5.8402,2.6148 5.8402,5.8402 0,3.2254 -2.6148,5.8402 -5.8402,5.8402 -3.2254,0 -5.8402,-2.6148 -5.8402,-5.8402 0,-3.2254 2.6148,-5.8402 5.8402,-5.8402 z m -85.755,-14.3535 c 6.4509,0 11.6804,5.2295 11.6804,11.6804 0,6.4509 -5.2295,11.6804 -11.6804,11.6804 -6.4509,0 -11.6804,-5.2295 -11.6804,-11.6804 0,-6.4509 5.2295,-11.6804 11.6804,-11.6804 z" class="fil70" mask="none" style="display:inline;fill:url(#linearGradient10);fill-opacity:1"/></g></g></svg>