<svg xmlns="http://www.w3.org/2000/svg" xmlns:svg="http://www.w3.org/2000/svg" xmlns:xlink="http://www.w3.org/1999/xlink" id="svg1" width="300mm" height="300mm" version="1.1" viewBox="0 0 300 300"><title id="title13">Equinox</title><defs id="defs1"><linearGradient id="linearGradient12"><stop style="stop-color:#fff;stop-opacity:0" id="stop13" offset=".749"/><stop style="stop-color:#000;stop-opacity:1" id="stop12" offset=".749"/></linearGradient><linearGradient id="linearGradient10"><stop style="stop-color:#fff;stop-opacity:1" id="stop10" offset="0"/><stop style="stop-color:#fff;stop-opacity:0" id="stop11" offset="1"/></linearGradient><linearGradient id="linearGradient5"><stop style="stop-color:#7964ff;stop-opacity:1" id="stop5" offset="0"/><stop style="stop-color:#0078ff;stop-opacity:1" id="stop6" offset="1"/></linearGradient><rect id="rect2" width="711.397" height="711.397" x="332.546" y="57.529"/><radialGradient id="radialGradient8" cx="87.216" cy="213.104" r="125.297" fx="87.216" fy="213.104" gradientTransform="matrix(1.8192221,5.0612866e-6,-5.3118573e-6,1.9092869,-65.892103,-199.64894)" gradientUnits="userSpaceOnUse" xlink:href="#linearGradient5"/><linearGradient id="linearGradient11" x1="343.049" x2="529.232" y1="67.808" y2="67.808" gradientUnits="userSpaceOnUse" xlink:href="#linearGradient10"/><linearGradient id="linearGradient13" x1="343.049" x2="568.123" y1="67.808" y2="135.061" gradientUnits="userSpaceOnUse" xlink:href="#linearGradient12"/><rect id="rect13" width="711.397" height="711.397" x="332.546" y="57.529"/></defs><g id="layer1" transform="matrix(1.061208,0,0,1.061208,-10.155378,-8.3393062)"><path id="text13" d="m 439.69541,165.47719 q -28.94534,0 -49.93494,-11.84897 -20.9896,-11.84897 -32.33076,-33.68492 -11.17188,-21.835962 -11.17188,-51.796928 0,-29.283881 11.17188,-51.28911 11.34116,-22.0052292 31.65368,-34.362012 20.48179,-12.356782 48.07296,-12.356782 24.71356,0 44.85681,10.494801 20.14325,10.494802 31.99222,31.822947 12.01824,21.328145 12.01824,53.658905 V 80.333884 H 396.53131 q 0.84636,23.190126 12.8646,35.039096 12.01824,11.84897 31.14586,11.84897 13.37241,0 22.85158,-5.58594 9.64845,-5.75522 13.71095,-16.75783 l 46.04171,8.63282 q -6.94011,23.52867 -28.77607,37.74743 -21.66668,14.21876 -54.67453,14.21876 z M 396.86985,48.510937 H 477.1043 Q 475.24232,30.060399 465.25533,19.227056 455.26834,8.3937122 437.66416,8.3937122 q -18.28127,0 -28.77607,11.3411568 -10.4948,11.171885 -12.01824,28.776068 z" aria-label="e" transform="matrix(1.207365,-0.36076805,0.36076805,1.207365,-385.69348,212.66452)" style="font-weight:700;font-size:346.667px;line-height:0;font-family:Inter;-inkscape-font-specification:'Inter Bold';white-space:pre;fill:none;stroke:#000;stroke-width:6.34864;stroke-linecap:square;paint-order:markers stroke fill"/><path style="fill:url(#radialGradient8);fill-opacity:1;stroke:#000;stroke-width:8;stroke-linecap:square;stroke-linejoin:round;stroke-dasharray:none;stroke-opacity:1;paint-order:stroke fill markers" id="rect1" width="250.594" height="250.594" x="24.703" y="24.703" d="m 52.118078,24.703125 195.763842,0 a 27.414953,27.414953 45 0 1 27.41495,27.414953 V 247.88192 a 27.414953,27.414953 135 0 1 -27.41495,27.41495 H 52.118078 A 27.414953,27.414953 45 0 1 24.703125,247.88192 l 0,-195.763842 A 27.414953,27.414953 135 0 1 52.118078,24.703125 Z" rx="0" ry="0" transform="translate(0.91798969,-0.79333533)"/><path id="text1" d="m 439.69541,165.47719 q -28.94534,0 -49.93494,-11.84897 -20.9896,-11.84897 -32.33076,-33.68492 -11.17188,-21.835962 -11.17188,-51.796928 0,-29.283881 11.17188,-51.28911 11.34116,-22.0052292 31.65368,-34.362012 20.48179,-12.356782 48.07296,-12.356782 24.71356,0 44.85681,10.494801 20.14325,10.494802 31.99222,31.822947 12.01824,21.328145 12.01824,53.658905 V 80.333884 H 396.53131 q 0.84636,23.190126 12.8646,35.039096 12.01824,11.84897 31.14586,11.84897 13.37241,0 22.85158,-5.58594 9.64845,-5.75522 13.71095,-16.75783 l 46.04171,8.63282 q -6.94011,23.52867 -28.77607,37.74743 -21.66668,14.21876 -54.67453,14.21876 z M 396.86985,48.510937 H 477.1043 Q 475.24232,30.060399 465.25533,19.227056 455.26834,8.3937122 437.66416,8.3937122 q -18.28127,0 -28.77607,11.3411568 -10.4948,11.171885 -12.01824,28.776068 z" aria-label="e" transform="matrix(1.207365,-0.36076805,0.36076805,1.207365,-385.69347,212.66452)" style="font-weight:700;font-size:346.667px;line-height:0;font-family:Inter;-inkscape-font-specification:'Inter Bold';white-space:pre;fill:#fff;stroke-width:6.41689;stroke-linecap:square;stroke-opacity:.296026;paint-order:markers stroke fill"/></g><metadata id="metadata13"/></svg>