<svg width="370" height="370" viewBox="0 0 370 370" fill="none" xmlns="http://www.w3.org/2000/svg">
<g clip-path="url(#clip0_10_69)">
<path d="M291.759 369.959L-0.0182193 291.778L78.1633 0L369.941 78.1815L291.759 369.959ZM172.107 140.088C163.038 137.658 153.716 143.04 151.286 152.109L139.381 196.541C136.951 205.61 142.333 214.932 151.401 217.362L197.766 229.785C206.835 232.215 216.157 226.833 218.587 217.764L230.492 173.332C232.922 164.263 227.54 154.941 218.471 152.511L172.107 140.088Z" fill="url(#paint0_linear_10_69)"/>
<path d="M454.34 191.02L419.595 262.638L230.933 171.107C232.017 162.785 226.799 154.743 218.471 152.511L172.107 140.088C170.048 139.536 167.975 139.387 165.973 139.593L129.049 121.68L29.602 326.662L-33.2841 296.153L100.908 19.553L454.34 191.02Z" fill="white"/>
<path d="M220.748 246.296C246.474 253.189 264.79 273.599 269.431 297.225C286.127 301.73 298.35 314.347 302.578 329.312L291.71 369.873L97.7349 317.898C96.1088 311.176 96.0852 304.031 97.9776 296.968C104.191 273.78 128.719 260.134 153.114 266.071C168.945 247.924 195.017 239.401 220.748 246.296Z" fill="#D9D9D9" fill-opacity="0.8"/>
<path d="M125.096 21.8931L302.427 107.714" stroke="white" stroke-width="4"/>
</g>
<defs>
<linearGradient id="paint0_linear_10_69" x1="364.879" y1="79.4135" x2="4.02776" y2="290.201" gradientUnits="userSpaceOnUse">
<stop stop-color="#00AAFF"/>
<stop offset="1" stop-color="#0049E6"/>
</linearGradient>
<clipPath id="clip0_10_69">
<rect x="78.1633" width="302" height="302" rx="13" transform="rotate(15 78.1633 0)" fill="white"/>
</clipPath>
</defs>
</svg>
